<?xml version="1.0" encoding="utf-8"?>
<!-- Designed by Vexels.com - 2016 All Rights Reserved - https://vexels.com/terms-and-conditions/  -->

<svg version="1.1" id="Capa_1" xmlns="http://www.w3.org/2000/svg" xmlns:xlink="http://www.w3.org/1999/xlink" x="0px" y="0px"
	 width="1200px" height="1200px" viewBox="0 0 1200 1200" enable-background="new 0 0 1200 1200" xml:space="preserve">
<g>
	<g>
		<path fill="#6b81f2ff" d="M789.247,798.068c0,0,53.432,121.034,19.944,211.938c-48.444,131.488-282.111,180.609-387.551,102.869
			c-105.434-77.74-131.084-239.851-59.841-352.08c71.243-112.231,34.197-171.466,34.197-171.466s79.421,82.446,64.228,145.845
			c-23.866,99.582,101.512,75.501,69.933-61.668c-31.578-137.172-85.717-254.436-11.629-342.329c0,0-21.198,130.335,54.946,170.866
			c76.138,40.525,98.937-133.069,16.299-234.884C507.132,165.348,626.598,50,626.598,50s-46.205,106.98,29.728,217.159
			c75.928,110.183,31.124,216.918-6.902,285.502c-38.03,68.587-8.595,117.214,26.91,90.994
			c56.239-41.527,121.159-147.989,55.212-328.507c0,0,135.87,120.519,54.853,280.599
			C727.492,712.127,763.867,730.163,789.247,798.068z"/>
		<path fill="#0b1cdaff" d="M455.934,609.656c0,0,20.739-104.989-14.907-166.486c-35.646-61.496,4.711-128.022,4.711-128.022
			s-72.639,44.981-67.776,120.519C384.815,542.162,455.934,609.656,455.934,609.656z"/>
		<path fill="#0b1cdaff" d="M506.834,267.159c0,0,56.032-55.906,0-153.965C506.834,113.193,449.254,202.144,506.834,267.159z"/>
		<path fill="#0b1cdaff" d="M724.824,275.18c0,0,20.565-44.992-8.223-94.491C716.604,180.689,665.877,218.185,724.824,275.18z"/>
		<path fill="#0b1cdaff" d="M838.621,839.14c0,0,20.565-13.498,35.646-77.994c15.508-66.334-17.823-181.488-17.823-181.488
			S760.472,693.651,838.621,839.14z"/>
		<path fill="#0f077cff" d="M561.898,1087.178c82.81,0.063,132.013-49.832,140.055-106.544c8.035-56.714-48.907-74.815-25.028-113.429
			c0,0-32.371,21.72-23.187,62.748c9.179,41.025-73.836-12.067-21.423-71.193c52.417-59.128-4.985-133.18-40.572-163.126
			c0,0,40.184,73.832,17.22,117.271c-22.959,43.438-66.022,13.274-37.031-31.375c0,0-47.919,7.239-27.256,92.913
			c20.666,85.673-23.346,126.701-47.835,101.361c-24.49-25.339-16.455-63.954,5.358-91.705c0,0-53.956,25.338-50.511,91.705
			C455.131,1042.174,480.645,1087.121,561.898,1087.178z"/>
	</g>
</g>
</svg>
